Coordinates
version=1
nRows=22
nColumns=24
inDegrees=yes

Units are S.I. units (second, meters, Newtons, ...)
Angles are in degrees.

endheader
time	pelvis_tilt	pelvis_list	pelvis_rotation	pelvis_tx	pelvis_ty	pelvis_tz	hip_flexion_r	hip_adduction_r	hip_rotation_r	knee_angle_r	ankle_angle_r	subtalar_angle_r	mtp_angle_r	hip_flexion_l	hip_adduction_l	hip_rotation_l	knee_angle_l	ankle_angle_l	subtalar_angle_l	mtp_angle_l	lumbar_extension	lumbar_bending	lumbar_rotation
      1.74150000	      0.80629423	      7.61253562	     -1.79729736	      1.43911789	      1.02009253	      0.29110186	     14.39092812	     -7.56832007	      1.51695687	    -63.62445464	      5.73304541	    -15.00044570	      2.00218535	      4.87495623	     13.18198358	      2.35487994	     -8.86869464	     -1.10513384	    -20.35549381	      8.36899667	     -1.12216911	     -8.29942493	      5.38117154
      1.74566667	      0.77787629	      7.51442080	     -1.48411265	      1.44389074	      1.02060659	      0.29051586	     14.85453941	     -7.45860173	      1.30950380	    -63.14621815	      5.86351092	    -15.07859669	      1.88876874	      4.40903686	     13.12053029	      2.76211428	     -8.58209074	     -1.03247244	    -20.37441958	      8.28385201	     -1.13484361	     -8.18330055	      5.16708204
      1.74983333	      0.74414140	      7.42139723	     -1.18116387	      1.44861955	      1.02105983	      0.28995582	     15.32834222	     -7.35321092	      1.12277613	    -62.65886448	      5.99606244	    -15.14505563	      1.80538757	      3.95718249	     13.05670688	      3.14186077	     -8.30047993	     -0.92914034	    -20.35380330	      8.22515681	     -1.14735367	     -8.06994520	      4.97125757
      1.75400000	      0.72224064	      7.33815892	     -0.88929321	      1.45335011	      1.02149944	      0.28942181	     15.78573746	     -7.26385804	      0.94212526	    -62.14877868	      6.14337575	    -15.21966062	      1.68354804	      3.48979148	     12.99903939	      3.53924423	     -7.99593649	     -0.90924415	    -20.38420551	      8.13493064	     -1.17279014	     -7.97917200	      4.72371561
      1.75816667	      0.68657009	      7.24659399	     -0.59514191	      1.45800747	      1.02188485	      0.28891031	     16.25285328	     -7.16796780	      0.76125333	    -61.61575266	      6.28272781	    -15.26219274	      1.63930641	      3.06968889	     12.92189935	      3.87122291	     -7.75463826	     -0.79762820	    -20.30455133	      8.10733859	     -1.19060732	     -7.87953220	      4.62607685
      1.76233333	      0.65076679	      7.16308749	     -0.29993929	      1.46274236	      1.02224904	      0.28837974	     16.70749813	     -7.09184068	      0.57504268	    -61.05979070	      6.39796456	    -15.32637364	      1.60204172	      2.63270873	     12.85113457	      4.20990403	     -7.48450494	     -0.71822645	    -20.23741810	      8.08532684	     -1.19878538	     -7.76575098	      4.48060853
      1.76650000	      0.64126346	      7.09009777	     -0.01826586	      1.46740070	      1.02261010	      0.28789751	     17.13093832	     -7.02259591	      0.41349763	    -60.47923661	      6.49666826	    -15.40368725	      1.47878164	      2.15398050	     12.79240249	      4.64353163	     -7.17139192	     -0.70999168	    -20.39313270	      7.99901068	     -1.24156405	     -7.69853253	      4.08784547
      1.77066667	      0.63091266	      7.02423859	      0.25318774	      1.47207239	      1.02293836	      0.28743480	     17.55254139	     -6.96719556	      0.25650667	    -59.88345592	      6.62071419	    -15.42794314	      1.34537301	      1.68731132	     12.73172695	      5.01193352	     -6.87689267	     -0.66200840	    -20.43495588	      7.90514573	     -1.27541892	     -7.62596830	      3.89167231
      1.77483333	      0.58286411	      6.93137819	      0.53012573	      1.47676950	      1.02320028	      0.28698526	     17.99789481	     -6.88090350	      0.10327871	    -59.24941570	      6.72332747	    -15.44769900	      1.30408970	      1.28433363	     12.63281724	      5.31229314	     -6.63567451	     -0.55157142	    -20.35035806	      7.87860014	     -1.26227441	     -7.52548514	      3.81162020
      1.77900000	      0.57050178	      6.86563823	      0.79353398	      1.48142029	      1.02346790	      0.28655423	     18.40265498	     -6.82876447	     -0.03826603	    -58.60450330	      6.81326045	    -15.49098989	      1.18983772	      0.83330241	     12.56488843	      5.69445970	     -6.36465750	     -0.51248582	    -20.42681305	      7.79517498	     -1.30517868	     -7.45232264	      3.51385813
      1.78316667	      0.53944153	      6.80195830	      1.04961269	      1.48609770	      1.02366893	      0.28616676	     18.82153473	     -6.77840027	     -0.16823167	    -57.94235776	      6.91830683	    -15.47209926	      1.15387725	      0.41563447	     12.48660687	      5.97230838	     -6.11401541	     -0.41645721	    -20.35180952	      7.77157058	     -1.30388636	     -7.38708533	      3.44673459
      1.78733333	      0.51659868	      6.72007486	      1.30873970	      1.49073646	      1.02388582	      0.28577101	     19.21231662	     -6.71074107	     -0.29846343	    -57.23569143	      7.00583462	    -15.46614453	      1.11050319	     -0.00864121	     12.38706699	      6.28547245	     -5.86185487	     -0.33809782	    -20.33281090	      7.74161339	     -1.33164885	     -7.30276230	      3.29195053
      1.79150000	      0.51515969	      6.67066664	      1.54215332	      1.49540672	      1.02406275	      0.28541298	     19.58870106	     -6.67825317	     -0.40229305	    -56.53683189	      7.07639665	    -15.45044441	      1.03325035	     -0.48261941	     12.32109875	      6.64954138	     -5.55911137	     -0.28655310	    -20.43326359	      7.68166590	     -1.37227587	     -7.24484046	      3.01356730
      1.79566667	      0.50351827	      6.61778832	      1.78516543	      1.50002050	      1.02420526	      0.28507099	     19.96297321	     -6.64454462	     -0.50934648	    -55.81449613	      7.16836263	    -15.40347645	      0.96546744	     -0.91783984	     12.24319270	      6.96223858	     -5.30180459	     -0.22349989	    -20.45046545	      7.62914252	     -1.40806825	     -7.19309640	      2.86789313
      1.79983333	      0.45595412	      6.56382387	      2.02329718	      1.50465504	      1.02427801	      0.28475392	     20.36560569	     -6.60776524	     -0.60035672	    -55.06581694	      7.25616075	    -15.34918789	      0.93585931	     -1.29761553	     12.15939933	      7.22572932	     -5.07638751	     -0.15936999	    -20.38601251	      7.60533848	     -1.40695401	     -7.14507009	      2.78855436
      1.80400000	      0.46246845	      6.52531602	      2.24017085	      1.50927641	      1.02438938	      0.28447105	     20.70652889	     -6.58477855	     -0.67262790	    -54.29976044	      7.32295864	    -15.28895834	      0.86178922	     -1.77137295	     12.08781392	      7.56795589	     -4.77030101	     -0.13219766	    -20.47052037	      7.53531227	     -1.46909381	     -7.11217199	      2.55163962
      1.80816667	      0.41339874	      6.47470435	      2.44755623	      1.51394553	      1.02438954	      0.28420775	     21.09724031	     -6.54877832	     -0.73426039	    -53.51518361	      7.38918085	    -15.20195280	      0.84467130	     -2.15929241	     11.99890660	      7.80148339	     -4.52138694	     -0.03519090	    -20.38988537	      7.52026889	     -1.44834901	     -7.05728003	      2.51738172
      1.81233333	      0.42271358	      6.43925932	      2.66812008	      1.51855143	      1.02444449	      0.28393333	     21.41102679	     -6.53721364	     -0.80816568	    -52.70305672	      7.44717808	    -15.09953168	      0.79449661	     -2.61728127	     11.92404878	      8.13242286	     -4.25620809	      0.02022256	    -20.48553670	      7.46244489	     -1.50854124	     -7.03427997	      2.28220863
      1.81650000	      0.37851362	      6.39933761	      2.88587472	      1.52317043	      1.02440417	      0.28367961	     21.77416642	     -6.51964949	     -0.86824770	    -51.87290244	      7.50417461	    -14.98489803	      0.77805024	     -2.99353109	     11.83976479	      8.38026510	     -4.03513623	      0.10869655	    -20.41247995	      7.44122186	     -1.50149722	     -7.00049570	      2.22702126
      1.82066667	      0.34731391	      6.35509384	      3.09931456	      1.52779495	      1.02434975	      0.28344030	     22.11393127	     -6.50043241	     -0.93178739	    -51.02101080	      7.53721786	    -14.86334042	      0.76557437	     -3.39512466	     11.74516475	      8.62986231	     -3.78719799	      0.20319702	    -20.36479232	      7.42189575	     -1.52126634	     -6.95846998	      2.13087888
      1.82483333	      0.36110464	      6.33861060	      3.29125671	      1.53242140	      1.02432664	      0.28323035	     22.39475218	     -6.50383810	     -0.96290743	    -50.15123048	      7.57575775	    -14.71613464	      0.74021718	     -3.85816117	     11.67874482	      8.94010388	     -3.51831781	      0.26030349	    -20.45338246	      7.36535245	     -1.58750149	     -6.95477991	      1.90553122
      1.82900000	      0.31052975	      6.31387599	      3.47727913	      1.53703175	      1.02416140	      0.28303896	     22.75008602	     -6.50176421	     -0.99377109	    -49.27937875	      7.60278971	    -14.57509264	      0.73670984	     -4.23253806	     11.60058914	      9.14311691	     -3.27142305	      0.36086711	    -20.36128223	      7.35178978	     -1.57986467	     -6.94186839	      1.87410874
